<svg id="Logo" xmlns="http://www.w3.org/2000/svg" viewBox="0 0 388.11 133.54"><defs><style>.cls-1{fill:#dd4863;}.cls-2{fill:#8d80ad;}.cls-11,.cls-3,.cls-7{fill:#fff;}.cls-4{fill:#40bedc;}.cls-5{fill:#f28923;}.cls-6{fill:#1aab8b;}.cls-11,.cls-7{opacity:0.9;font-family:Roboto-Light, Roboto;}.cls-7{font-size:52px;letter-spacing:-0.04em;}.cls-8{letter-spacing:-0.03em;}.cls-9{letter-spacing:-0.07em;}.cls-10{letter-spacing:-0.03em;}.cls-11{font-size:61.19px;letter-spacing:-0.05em;}</style></defs><title>Artboard 1</title><path class="cls-1" d="M46.58,68.93a17,17,0,0,1,14.59,9.91h28.9A44.89,44.89,0,0,0,46.58,41Z"/><path class="cls-2" d="M62.61,84c.06.61.1,1.23.1,1.85a17,17,0,0,1-16.13,16.95v27.93a44.89,44.89,0,0,0,44-44.88c0-.62,0-1.23-.05-1.85Z"/><path class="cls-3" d="M41.4,102.29A17,17,0,0,1,28.73,85.87,16.26,16.26,0,0,1,28.84,84H.87c0,.62-.05,1.23-.05,1.85a44.91,44.91,0,0,0,40.58,44.7Z"/><polygon class="cls-4" points="43.99 0 80.62 0 80.62 24.94 37.2 24.94 43.99 0"/><polygon class="cls-5" points="0.82 37.85 28.4 37.85 40.72 0 13.14 0 0.82 37.85"/><polygon class="cls-6" points="0.82 40.97 41.94 40.97 41.94 68.85 13.73 68.85 0.82 40.97"/><text class="cls-7" transform="translate(100.54 78.92)">K<tspan class="cls-8" x="30.97" y="0">O</tspan><tspan class="cls-9" x="64.5" y="0">R</tspan><tspan class="cls-10" x="95.24" y="0">TE</tspan></text><text class="cls-11" transform="translate(100.54 130.28)">OM KILDER</text></svg>