<?xml version="1.0" encoding="utf-8"?>
<!-- Generator: Adobe Illustrator 22.1.0, SVG Export Plug-In . SVG Version: 6.00 Build 0)  -->
<svg version="1.1" xmlns="http://www.w3.org/2000/svg" xmlns:xlink="http://www.w3.org/1999/xlink" x="0px" y="0px"
	 viewBox="0 0 581.1 846.1" style="enable-background:new 0 0 581.1 846.1;" xml:space="preserve">
<style type="text/css">
	.st0{display:none;}
	.st1{display:inline;fill:#233249;}
	.st2{fill:#35445B;}
	.st3{fill:#637EA5;}
	.st4{fill:#526175;}
	.st5{fill:url(#SVGID_1_);}
	.st6{fill:#DD4863;}
	.st7{fill:#8D80AD;}
	.st8{fill:#FFFFFF;}
	.st9{fill:#40BEDC;}
	.st10{fill:#F28923;}
	.st11{fill:#1AAB8B;}
</style>
<g id="Reference" class="st0">
	<rect x="-221.4" y="-88.9" class="st1" width="1024" height="1024"/>
	<rect x="-94.8" y="385" class="st2" width="26.8" height="55.3"/>
	<rect x="-94.8" y="322.2" class="st3" width="26.8" height="55.3"/>
	<rect x="-94.8" y="447.8" class="st4" width="26.8" height="55.3"/>
	<linearGradient id="SVGID_1_" gradientUnits="userSpaceOnUse" x1="-94.8032" y1="538.3212" x2="-68.0271" y2="538.3212">
		<stop  offset="0" style="stop-color:#36445B"/>
		<stop  offset="1.368169e-02" style="stop-color:#37465D"/>
		<stop  offset="0.1369" style="stop-color:#42536E"/>
		<stop  offset="0.2629" style="stop-color:#495D7B"/>
		<stop  offset="0.3923" style="stop-color:#4E6383"/>
		<stop  offset="0.5301" style="stop-color:#4F6686"/>
		<stop  offset="1" style="stop-color:#536175"/>
	</linearGradient>
	<rect x="-94.8" y="510.7" class="st5" width="26.8" height="55.3"/>
</g>
<g id="Logo">
	<g>
		<path class="st6" d="M296.1,446c42.1,2.1,77.8,27.8,94.4,64.2h187C556,373.1,438.6,268,296.1,265.3V446z"/>
		<path class="st7" d="M399.8,543.7c0.4,3.9,0.7,7.9,0.7,12c0,58.8-46.3,106.7-104.4,109.7v180.8c157.9-3,285-131.8,285-290.4
			c0-4-0.1-8-0.3-12H399.8z"/>
		<path class="st8" d="M262.6,661.9c-47.2-12.4-82-55.2-82-106.2c0-4.1,0.3-8.1,0.7-12H0.3c-0.2,4-0.3,8-0.3,12
			c0,151,115.3,275.1,262.6,289.2V661.9z"/>
		<polygon class="st9" points="279.4,0 516.4,0 516.4,161.4 235.4,161.4 		"/>
		<polygon class="st10" points="0,244.9 178.5,244.9 258.2,0 79.7,0 		"/>
		<polygon class="st11" points="0,265.1 266.1,265.1 266.1,445.5 83.5,445.5 		"/>
	</g>
</g>
</svg>
