<?xml version="1.0" encoding="utf-8"?>
<!-- Generator: Adobe Illustrator 23.0.1, SVG Export Plug-In . SVG Version: 6.00 Build 0)  -->
<svg version="1.1" id="Layer_1" xmlns="http://www.w3.org/2000/svg" xmlns:xlink="http://www.w3.org/1999/xlink" x="0px" y="0px"
	 viewBox="0 0 24 24" style="enable-background:new 0 0 24 24;" xml:space="preserve">
<style type="text/css">
	.st0{fill:#FFFFFF;}
</style>
<title>efter-laesning</title>
<g>
	<g id="Layer_1-2">
		<path class="st0" d="M20.8,3.6v13.8c0,0-2-1.1-4.2-1.1c-2,0-4.2,1.1-4.2,1.1V4.1c-0.1,0.1-0.3,0.2-0.3,0.3c0,0-1.2-1.4-5.3-1.4
			c-4,0-4.9,1.4-4.9,1.4v15c0,0,2.6-1.1,5.1-1.2s5.1,1.2,5.1,1.2s2.6-1.2,5.1-1.2c2.6,0,5.1,1.2,5.1,1.2v-15
			C22.2,4.4,21.9,4,20.8,3.6z"/>
		<polygon class="st0" points="14.2,4.6 14.2,15.2 18.8,10.6 18.8,2.4 18.8,0 16.6,2.2 		"/>
	</g>
</g>
</svg>
