<?xml version="1.0" encoding="utf-8"?>
<!-- Generator: Adobe Illustrator 23.0.1, SVG Export Plug-In . SVG Version: 6.00 Build 0)  -->
<svg version="1.1" id="Layer_1" xmlns="http://www.w3.org/2000/svg" xmlns:xlink="http://www.w3.org/1999/xlink" x="0px" y="0px"
	 viewBox="0 0 24 24" style="enable-background:new 0 0 24 24;" xml:space="preserve">
<style type="text/css">
	.st0{fill:#FFFFFF;}
</style>
<title>foer-laesning</title>
<g>
	<g id="Layer_1-2">
		<path class="st0" d="M16.7,5c-2.6,0-3.8,0.6-4.4,1v12.2c0,0-1.9-1.1-4-1c-2,0-4,1-4,1v-13c-1.4,0.4-1.9,1-1.9,1v14.1
			c0,0,2.5-1,4.8-1.1c2.4,0,4.8,1.2,4.8,1.2s2.5-1.1,4.8-1.1c2.5,0,4.8,1.1,4.8,1.1V6.3C21.6,6.3,20.6,5,16.7,5z"/>
		<polygon class="st0" points="5.5,10 9.8,14.4 9.9,4.3 9.5,3.9 5.5,0 5.5,4.3 		"/>
	</g>
</g>
</svg>
