<?xml version="1.0" encoding="utf-8"?>
<!-- Generator: Adobe Illustrator 23.0.1, SVG Export Plug-In . SVG Version: 6.00 Build 0)  -->
<svg version="1.1" id="Layer_1" xmlns="http://www.w3.org/2000/svg" xmlns:xlink="http://www.w3.org/1999/xlink" x="0px" y="0px"
	 viewBox="0 0 24 24" style="enable-background:new 0 0 24 24;" xml:space="preserve">
<style type="text/css">
	.st0{fill:#FFFFFF;}
</style>
<path class="st0" d="M2.8,13.4c0-0.4,0-0.7,0.1-1.1c-0.6-0.9-0.9-2-0.8-3c0.1-2.1,1.5-3.8,3.5-4.3c0.8-1,2.1-1.6,3.4-1.6
	c0.4,0,0.9,0.1,1.3,0.2c1.7-1.3,4.1-1.1,5.7,0.4c1.7-0.1,3.3,1,3.9,2.6c0.8,0.5,1.5,1.3,1.9,2.2c0.2,0.7,0.2,1.5-0.1,2.3
	c0.3,0.6,0.4,1.3,0.3,2c0,1.5-1,2.9-2.4,3.5c-0.7,0.3-1.5,0.4-2.2,0.4c-0.5,0-1.1-0.1-1.6-0.2c-0.7,0.5-1.6,0.8-2.4,0.8
	c-0.5,0-1-0.1-1.5-0.2c-0.7,0.6-1.5,0.9-2.4,1.1l-2.1,2.4c-0.3,0.4-0.8,0.6-1.3,0.6c-0.2,0-0.4,0-0.5-0.1L4.9,21
	c-0.5-0.2-0.8-0.5-1-1c-0.2-0.5-0.2-1,0.1-1.4l0.7-1.4C3.4,16.3,2.7,14.9,2.8,13.4 M7.7,12c1.2,0,2.3,0.1,2.5,1.5
	c0.6,1.2,1.8,2,3.1,2.1c1.2-0.1,2.2-0.9,2.5-2c0.2-0.5,0.8-0.8,1.3-0.6c0.5,0.2,0.8,0.8,0.6,1.3c-0.1,0.3-0.2,0.5-0.4,0.8
	c0.6,0,1.1-0.1,1.7-0.4c0.6-0.4,1-1.1,1-1.8c0-0.4,0-1-0.3-1.2c-0.7-0.3-1.5-0.3-2.2,0.1c-0.5,0.2-1.1-0.1-1.3-0.6
	c-0.2-0.5,0.1-1.1,0.6-1.3c1-0.4,2.1-0.5,3.1-0.2c-0.2-1-0.7-1.3-1.6-1.7c-0.5-1.9-1.3-2.1-3-1.9c-1-1.2-1.9-1.5-2.8-1.3
	C12.8,5.2,13,5.8,13,6.5l0,0c0,0.6,0.8,0.7,0.9,0.7c0.5,0,0.9,0.5,0.9,1.1c0,0.5-0.5,0.9-1,0.9l0,0c-0.6-0.1-1.1-0.2-1.6-0.5
	c-0.4,0.3-0.9,0.5-1.4,0.5l0,0c-0.5,0-1-0.4-1-1c0-0.5,0.4-1,1-1c0,0,0.3-0.5,0.2-0.7l0,0C11,5.6,8,4,6.8,6.9C4.6,7.1,4,8.1,4,9.3
	c0,0.3,0,0.6,0.1,0.9c0.9-0.8,2-1.2,3.2-1.3c0.5,0,1,0.4,1,1c0,0.5-0.4,1-1,1c-1.4-0.1-2.5,1-2.6,2.4c0,0-0.6,3.1,4.4,3.2
	c0.3-0.1,0.5-0.1,0.7-0.2c-0.7-0.6-1.3-1.3-1.6-2.2H7.6c-0.5,0-1-0.4-1-1C6.7,12.5,7.1,12.1,7.7,12 M5.7,19.2L6,19.3l1-1.2L6.3,18
	L5.7,19.2 M11.2,11.8c0.2,0,0.3,0,0.4,0.1c0.2,0.2,0.2,0.5,0.2,0.7c0,0.5,0.4,1,1,1c0.5,0,1-0.4,1-1c0-0.8-0.3-1.6-0.8-2.1
	c-0.5-0.5-1.2-0.7-1.9-0.6c-0.5,0-0.9,0.5-0.9,1C10.2,11.4,10.7,11.8,11.2,11.8z"/>
</svg>
