<?xml version="1.0" encoding="utf-8"?>
<!-- Generator: Adobe Illustrator 23.0.1, SVG Export Plug-In . SVG Version: 6.00 Build 0)  -->
<svg version="1.1" id="Layer_1" xmlns="http://www.w3.org/2000/svg" xmlns:xlink="http://www.w3.org/1999/xlink" x="0px" y="0px"
	 viewBox="0 0 24 24" style="enable-background:new 0 0 24 24;" xml:space="preserve">
<style type="text/css">
	.st0{fill:#FFFFFF;}
</style>
<path class="st0" d="M3,10c-0.2,0-0.5,0.1-0.6,0.2c-0.1,0.1-0.2,0.4-0.2,0.6l0.5,3C2.8,14.5,3.4,15,4,15h3c0.6,0,1.4-0.6,1.5-1.2
	l1.1-3.2c0-0.1,0-0.3-0.1-0.4C9.4,10.1,9.2,10,9,10H3 M7,17H4c-1.6,0-3-1.3-3.2-2.9l-0.5-3c-0.1-0.8,0.1-1.6,0.7-2.2S2.2,8,3,8h6
	c0.8,0,1.6,0.4,2.1,1c0.1,0.1,0.2,0.3,0.3,0.5c0.4-0.1,0.9-0.1,1.3,0c0.1-0.2,0.2-0.3,0.3-0.5c0.5-0.6,1.2-1,2.1-1h6
	c0.8,0,1.6,0.3,2.1,0.9c0.5,0.6,0.8,1.4,0.6,2.2l-0.5,3.1C23,15.7,21.6,17,20,17h-3c-1.6,0-3.1-1.2-3.5-2.7l-0.9-2.7
	c-0.4-0.3-0.9-0.3-1.3,0l-0.9,2.8C10.1,15.8,8.6,17,7,17 M15,10c-0.2,0-0.4,0.1-0.5,0.2c-0.1,0.1-0.1,0.3-0.1,0.5l1,3.1
	c0.2,0.7,0.9,1.2,1.5,1.2h3c0.6,0,1.2-0.5,1.2-1.1l0.5-3.1c0-0.2,0-0.4-0.2-0.6C21.5,10.1,21.2,10,21,10H15z"/>
</svg>
