<?xml version="1.0" encoding="utf-8"?>
<!-- Generator: Adobe Illustrator 22.1.0, SVG Export Plug-In . SVG Version: 6.00 Build 0)  -->
<svg version="1.1" id="Layer_1" xmlns="http://www.w3.org/2000/svg" xmlns:xlink="http://www.w3.org/1999/xlink" x="0px" y="0px"
	 viewBox="0 0 48 24" style="enable-background:new 0 0 48 24;" xml:space="preserve">
<style type="text/css">
	.st0{fill:none;stroke:#FFFFFF;stroke-width:2;stroke-miterlimit:10;}
	.st1{fill:#FFFFFF;}
</style>
<g>
	<path class="st0" d="M43,18H33c-1.1,0-2-0.9-2-2V4c0-1.1,0.9-2,2-2h10c1.1,0,2,0.9,2,2v12C45,17.1,44.1,18,43,18"/>
	<polyline class="st1" points="34,9 36,7.5 38,9 38,4 34,4 34,9 	"/>
	<path class="st1" d="M41,20v2H29c-1.1,0-2-0.9-2-2V6h2v14H41z"/>
</g>
<path class="st1" d="M19,18H9c-1.1,0-2-0.9-2-2V4c0-1.1,0.9-2,2-2h10c1.1,0,2,0.9,2,2v12C21,17.1,20.1,18,19,18 M10,9l2-1.5L14,9V4
	h-4V9 M17,20v2H5c-1.1,0-2-0.9-2-2V6h2v14H17z"/>
</svg>
