<?xml version="1.0" encoding="utf-8"?>
<!-- Generator: Adobe Illustrator 23.0.1, SVG Export Plug-In . SVG Version: 6.00 Build 0)  -->
<svg version="1.1" id="Layer_1" xmlns="http://www.w3.org/2000/svg" xmlns:xlink="http://www.w3.org/1999/xlink" x="0px" y="0px"
	 viewBox="0 0 24 24" style="enable-background:new 0 0 24 24;" xml:space="preserve">
<style type="text/css">
	.st0{fill:#FFFFFF;}
</style>
<path class="st0" d="M15,4c4.4,0,8,3.6,8,8s-3.6,8-8,8s-8-3.6-8-8S10.6,4,15,4 M15,6c-3.3,0-6,2.7-6,6s2.7,6,6,6s6-2.7,6-6
	S18.3,6,15,6 M14,8h1.5v3.8l2.3,2.3l-1.1,1.1L14,12.4V8 M2,18c-0.6,0-1-0.4-1-1s0.4-1,1-1h3.8c0.3,0.7,0.7,1.4,1.2,2H2 M3,13
	c-0.6,0-1-0.4-1-1s0.4-1,1-1h2.1L5,12l0.1,1H3 M4,8C3.4,8,3,7.6,3,7s0.4-1,1-1h3C6.5,6.6,6.1,7.3,5.8,8H4z"/>
</svg>
