<svg id="Layer_1" data-name="Layer 1" xmlns="http://www.w3.org/2000/svg" viewBox="0 0 142.24 67.45"><defs><style>.cls-1,.cls-2{fill:#fff;}.cls-2{font-size:10.5px;font-family:HelveticaNeue-CondensedBold, Helvetica Neue;font-weight:700;}.cls-3{letter-spacing:-0.02em;}</style></defs><title>KEA_logo_DK</title><path class="cls-1" d="M138.78,16.09H114.52v6.09h23.92c8.22,0,10.73,2.59,11.33,6.62H125.23c-9.11,0-13.17,3.53-13.17,11.45s4.11,11.54,13.35,11.54h30.43V31.38c0-10.29-5.58-15.29-17.06-15.29M149.9,45.7H126.05c-7.48,0-7.8-1.67-7.8-5.45s.78-5.35,7.93-5.35H149.9Z" transform="translate(-13.67 -16.09)"/><path class="cls-1" d="M67.52,38.79H91.86c9.1,0,13.16-3.48,13.16-11.3,0-8-4-11.4-13.34-11.4h-13c-15.37,0-17.49,8.58-17.49,17.85s2.12,17.85,17.49,17.85h24.92v-6H79.08c-8.4,0-10.8-2.24-11.56-7M79.08,22H91c7.06,0,7.8,1.67,7.8,5.49,0,3.63-.75,5.21-7.93,5.21H67.2C67.38,25.17,69.36,22,79.08,22" transform="translate(-13.67 -16.09)"/><polygon class="cls-1" points="35.66 0 6.67 27.73 6.67 0 0.65 0 0.65 35.71 7 35.71 20.92 22.38 36.75 35.71 46.26 35.71 25.38 18.23 44.36 0 35.66 0"/><path class="cls-1" d="M15.69,61v3h0l1.92-3h1.65l-2.05,3.2,2.28,4.26H17.8l-1.55-3.06-.56.85v2.21H14.17V61Z" transform="translate(-13.67 -16.09)"/><path class="cls-1" d="M20.5,68c-.71-.64-.82-1.83-.82-3.31,0-2.27.28-3.88,2.56-3.88a2.8,2.8,0,0,1,1.28.26l.27-.64.51.22-.32.73c.71.65.82,1.84.82,3.31,0,2.27-.28,3.88-2.56,3.88A2.78,2.78,0,0,1,21,68.32l-.27.64-.51-.22ZM23,62.3a.78.78,0,0,0-.74-.38c-.9,0-1,.78-1,2.77a13.17,13.17,0,0,0,.06,1.55h0ZM21.5,67.08a.75.75,0,0,0,.74.38c.9,0,1-.76,1-2.77a13.37,13.37,0,0,0-.06-1.55h0Z" transform="translate(-13.67 -16.09)"/><path class="cls-1" d="M25.7,61h2.54c1.24,0,2.14.46,2.14,1.89a1.56,1.56,0,0,1-1.14,1.63v0a1.59,1.59,0,0,1,1.37,1.74c0,1.17-.58,2.18-2.35,2.18H25.7ZM27.22,64h.43c.83,0,1.21-.28,1.21-1s-.35-1-1.09-1h-.55Zm0,3.3h.59c.73,0,1.22-.27,1.22-1.14s-.49-1.11-1.16-1.11h-.65Z" transform="translate(-13.67 -16.09)"/><path class="cls-1" d="M35.77,61v1.23H33.08V64h2.53v1.23H33.08v2h2.79v1.23H31.56V61Z" transform="translate(-13.67 -16.09)"/><path class="cls-1" d="M38.39,61l1.83,5.11h0V61h1.39v7.46H39.9L38.05,63.2h0v5.22h-1.4V61Z" transform="translate(-13.67 -16.09)"/><path class="cls-1" d="M42.69,61h1.52v2.85H46V61H47.5v7.46H46V65.11H44.21v3.31H42.69Z" transform="translate(-13.67 -16.09)"/><path class="cls-1" d="M50,61h1.87l2,7.46H52.31L52,66.84H50l-.35,1.58H48Zm.2,4.65h1.47L51,62.26h0Z" transform="translate(-13.67 -16.09)"/><path class="cls-1" d="M55.45,61l1.06,5.52h0L57.66,61h1.57L57.5,68.42h-2L53.83,61Z" transform="translate(-13.67 -16.09)"/><path class="cls-1" d="M61.54,61l1.84,5.11h0V61h1.39v7.46H63.06L61.21,63.2h0v5.22H59.79V61Z" transform="translate(-13.67 -16.09)"/><path class="cls-1" d="M67.07,66.09v.22c0,.7.2,1.15,1,1.15a.86.86,0,0,0,.91-.92c0-.68-.35-.93-1.35-1.27-1.35-.46-2-1-2-2.26A2.06,2.06,0,0,1,68,60.81c1.35,0,2.33.58,2.33,2V63H68.86c0-.7-.24-1.11-.82-1.11a.78.78,0,0,0-.87.87c0,.46.14.74.79,1l1.16.5c1.15.5,1.44,1.07,1.44,2,0,1.58-1,2.29-2.62,2.29s-2.39-.8-2.39-2.17v-.31Z" transform="translate(-13.67 -16.09)"/><path class="cls-1" d="M78.06,61v1.23H75.37V64H77.9v1.23H75.37v2h2.79v1.23H73.85V61Z" transform="translate(-13.67 -16.09)"/><path class="cls-1" d="M78.92,61h2.81a1.78,1.78,0,0,1,2,1.92c0,1-.4,1.66-1.25,1.84v0c1,.14,1.18.71,1.21,2.28,0,.79,0,1.2.34,1.34v.06H82.38a1.39,1.39,0,0,1-.19-.78l0-1.43c0-.59-.28-.94-.9-.94h-.81v3.15H78.92Zm1.52,3.26h.63c.73,0,1.14-.31,1.14-1.12a.93.93,0,0,0-1-1h-.72Z" transform="translate(-13.67 -16.09)"/><path class="cls-1" d="M84.79,61H86.3v2.85h1.78V61h1.51v7.46H88.08V65.11H86.3v3.31H84.79Z" transform="translate(-13.67 -16.09)"/><path class="cls-1" d="M91.78,61l1.06,5.52h0L94,61h1.57l-1.73,7.46h-2L90.15,61Z" transform="translate(-13.67 -16.09)"/><path class="cls-1" d="M100.33,61v1.23H97.64V64h2.53v1.23H97.64v2h2.79v1.23H96.12V61Z" transform="translate(-13.67 -16.09)"/><path class="cls-1" d="M101.19,61H104a1.78,1.78,0,0,1,2,1.92c0,1-.4,1.66-1.25,1.84v0c1,.14,1.19.71,1.21,2.28,0,.79.05,1.2.34,1.34v.06h-1.65a1.39,1.39,0,0,1-.19-.78l0-1.43c0-.59-.28-.94-.89-.94h-.82v3.15h-1.52Zm1.52,3.26h.64c.72,0,1.13-.31,1.13-1.12a.93.93,0,0,0-1-1h-.72Z" transform="translate(-13.67 -16.09)"/><path class="cls-1" d="M108.19,61l1.06,5.52h0L110.4,61H112l-1.73,7.46h-1.95L106.56,61Z" transform="translate(-13.67 -16.09)"/><path class="cls-1" d="M113.75,66.09v.22c0,.7.2,1.15,1,1.15a.86.86,0,0,0,.91-.92c0-.68-.35-.93-1.35-1.27-1.35-.46-2-1-2-2.26a2.06,2.06,0,0,1,2.33-2.2c1.35,0,2.33.58,2.33,2V63h-1.45c0-.7-.25-1.11-.83-1.11a.77.77,0,0,0-.86.87c0,.46.14.74.78,1l1.17.5c1.14.5,1.44,1.07,1.44,2,0,1.58-1,2.29-2.62,2.29s-2.39-.8-2.39-2.17v-.31Z" transform="translate(-13.67 -16.09)"/><path class="cls-1" d="M119.47,61h1.88l2,7.46h-1.58l-.35-1.58h-2l-.35,1.58h-1.58Zm.2,4.65h1.48l-.73-3.35h0Z" transform="translate(-13.67 -16.09)"/><path class="cls-1" d="M125.38,61v3h0l1.92-3H129l-2,3.2,2.27,4.26h-1.7l-1.56-3.06-.55.85v2.21h-1.52V61Z" transform="translate(-13.67 -16.09)"/><path class="cls-1" d="M131,61h1.87l2,7.46h-1.58l-.36-1.58h-2l-.35,1.58H129Zm.2,4.65h1.47l-.72-3.35h0Z" transform="translate(-13.67 -16.09)"/><path class="cls-1" d="M135.46,61H138c2.11,0,2.49,1.43,2.49,3.63,0,2.64-.57,3.83-2.59,3.83h-2.39ZM137,67.32h.67c1.06,0,1.27-.66,1.27-2.69,0-1.69-.14-2.56-1.3-2.56H137Z" transform="translate(-13.67 -16.09)"/><path class="cls-1" d="M145.64,61v1.23H143V64h2.54v1.23H143v2h2.8v1.23h-4.31V61Z" transform="translate(-13.67 -16.09)"/><path class="cls-1" d="M146.54,61h2.26l1.07,5.27h0L151,61h2.25v7.46h-1.4v-6h0l-1.34,6h-1.18l-1.34-6h0v6h-1.39Z" transform="translate(-13.67 -16.09)"/><path class="cls-1" d="M154.39,68.42V61h1.52v7.46Z" transform="translate(-13.67 -16.09)"/><text x="-13.67" y="-16.09"></text><text class="cls-2" transform="translate(0 63.92)">BIBLIOTEK / LIBRA<tspan class="cls-3" x="77.13" y="0">R</tspan><tspan x="82.78" y="0">Y</tspan></text></svg>