<?xml version="1.0" encoding="utf-8"?>
<!-- Generator: Adobe Illustrator 23.0.2, SVG Export Plug-In . SVG Version: 6.00 Build 0)  -->
<svg version="1.1" id="Layer_1" xmlns="http://www.w3.org/2000/svg" xmlns:xlink="http://www.w3.org/1999/xlink" x="0px" y="0px"
	 viewBox="0 0 24 24" style="enable-background:new 0 0 24 24;" xml:space="preserve">
<style type="text/css">
	.st0{fill:#FFFFFF;}
</style>
<path class="st0" d="M3.5,19C4.3,19,5,19.7,5,20.5S4.3,22,3.5,22S2,21.3,2,20.5S2.7,19,3.5,19 M8.5,16c1.4,0,2.5,1.1,2.5,2.5
	S9.9,21,8.5,21S6,19.9,6,18.5S7.1,16,8.5,16 M14.5,15c-1.2,0-2.3-0.5-3-1.4c-0.7,0.9-1.8,1.4-3,1.4c-2,0-3.6-1.4-3.9-3.3
	C3.1,11.2,2,9.7,2,8c0-2.2,1.8-4,4-4c0.3,0,0.5,0,0.8,0.1C7.5,3.4,8.4,3,9.5,3c1.2,0,2.3,0.5,3,1.3c0.7-0.8,1.8-1.3,3-1.3
	c2,0,3.6,1.4,3.9,3.3c1.5,0.6,2.6,2,2.6,3.7c0,2.2-1.8,4-4,4l-0.8-0.1C16.5,14.6,15.6,15,14.5,15z"/>
</svg>
