<?xml version="1.0" encoding="utf-8"?>
<!-- Generator: Adobe Illustrator 22.1.0, SVG Export Plug-In . SVG Version: 6.00 Build 0)  -->
<svg version="1.1" id="Layer_1" xmlns="http://www.w3.org/2000/svg" xmlns:xlink="http://www.w3.org/1999/xlink" x="0px" y="0px"
	 viewBox="0 0 48 24" style="enable-background:new 0 0 48 24;" xml:space="preserve">
<style type="text/css">
	.st0{fill:none;}
	.st1{fill:#FFFFFF;}
</style>
<path class="st0" d="M0,0.1h24v24H0V0.1z"/>
<path class="st1" d="M12,2.1c-5.5,0-10,4.5-10,10s4.5,10,10,10s10-4.5,10-10S17.5,2.1,12,2.1z M13,19.1h-2v-2h2V19.1z M15.1,11.3
	l-0.9,0.9C13.4,13,13,13.6,13,15.1h-2v-0.5c0-1.1,0.4-2.1,1.2-2.8l1.2-1.3c0.4-0.3,0.6-0.8,0.6-1.4c0-1.1-0.9-2-2-2s-2,0.9-2,2H8
	c0-2.2,1.8-4,4-4s4,1.8,4,4C16,10,15.6,10.8,15.1,11.3z"/>
<g id="Layer_1_1_">
	<path class="st0" d="M24,0.1h24v24H24V0.1z"/>
	<g id="XMLID_1_">
		<g>
			<rect x="35" y="16.1" class="st1" width="2" height="2"/>
			<path class="st1" d="M38,10.1c0-1.1-0.9-2-2-2s-2,0.9-2,2h-2c0-2.2,1.8-4,4-4s4,1.8,4,4c0,2.5-3,2.8-3,5h-2
				C35,11.9,38,12.1,38,10.1z"/>
			<path class="st1" d="M36,20.1c4.4,0,8-3.6,8-8s-3.6-8-8-8s-8,3.6-8,8S31.6,20.1,36,20.1z M36,2.1c5.5,0,10,4.5,10,10
				s-4.5,10-10,10s-10-4.5-10-10S30.5,2.1,36,2.1z"/>
		</g>
	</g>
</g>
</svg>
