<?xml version="1.0" encoding="utf-8"?>
<!-- Generator: Adobe Illustrator 22.0.1, SVG Export Plug-In . SVG Version: 6.00 Build 0)  -->
<svg version="1.1" xmlns="http://www.w3.org/2000/svg" xmlns:xlink="http://www.w3.org/1999/xlink" x="0px" y="0px"
	 viewBox="0 0 24 24" style="enable-background:new 0 0 24 24;" xml:space="preserve">
<style type="text/css">
	.st0{display:none;}
	.st1{display:inline;fill:#EF0707;}
	.st2{fill:none;}
	.st3{fill:#FFFFFF;}
</style>
<g id="Layer_2" class="st0">
	<rect x="-0.6" y="-0.7" class="st1" width="25.5" height="25.5"/>
</g>
<g id="Layer_1">
	<path class="st2" d="M0,0h24v24H0V0z"/>
	<g id="XMLID_1_">
		<g>
			<path class="st3" d="M11,16v2h2v-2H11z M11,15h2c0-2.2,3-2.5,3-5c0-2.2-1.8-4-4-4s-4,1.8-4,4h2c0-1.1,0.9-2,2-2s2,0.9,2,2
				C14,12,11,11.8,11,15z M12,2c5.5,0,10,4.5,10,10s-4.5,10-10,10S2,17.5,2,12S6.5,2,12,2z"/>
		</g>
		<g>
		</g>
	</g>
</g>
</svg>
