<?xml version="1.0" encoding="utf-8"?>
<!-- Generator: Adobe Illustrator 23.0.1, SVG Export Plug-In . SVG Version: 6.00 Build 0)  -->
<svg version="1.1" id="Layer_1" xmlns="http://www.w3.org/2000/svg" xmlns:xlink="http://www.w3.org/1999/xlink" x="0px" y="0px"
	 viewBox="0 0 24 24" style="enable-background:new 0 0 24 24;" xml:space="preserve">
<style type="text/css">
	.st0{fill:#FFFFFF;}
</style>
<title>open book</title>
<g>
	<g id="Layer_1-2">
		<path class="st0" d="M16.9,4.4C13,4.4,12,5.8,12,5.8s-1.2-1.4-5.3-1.4c-4,0-4.9,1.4-4.9,1.4v15c0,0,2.6-1.1,5.1-1.2
			c2.5-0.1,5.1,1.2,5.1,1.2s2.6-1.2,5.1-1.2c2.6,0,5.1,1.2,5.1,1.2v-15C22.2,5.8,21.1,4.4,16.9,4.4z M10.7,18.7c0,0-1.7-0.9-3.7-0.9
			c-1.8,0-3.7,0.9-3.7,0.9V6.9c0,0,0.7-0.9,3.6-1.1c2.9-0.2,3.7,1.1,3.7,1.1V18.7z M20.8,18.8c0,0-1.7-0.9-3.7-0.9
			c-1.8,0-3.7,0.9-3.7,0.9V7c0,0,0.7-0.9,3.6-1.1C19.9,5.8,20.8,7,20.8,7V18.8z"/>
	</g>
</g>
</svg>
