<?xml version="1.0" encoding="utf-8"?>
<!-- Generator: Adobe Illustrator 22.1.0, SVG Export Plug-In . SVG Version: 6.00 Build 0)  -->
<svg version="1.1" id="Layer_1" xmlns="http://www.w3.org/2000/svg" xmlns:xlink="http://www.w3.org/1999/xlink" x="0px" y="0px"
	 viewBox="0 0 24 24" style="enable-background:new 0 0 24 24;" xml:space="preserve">
<style type="text/css">
	.st0{fill:#FFFFFF;}
</style>
<path class="st0" d="M12,2C6.5,2,2,6.5,2,12s4.5,10,10,10s10-4.5,10-10c0-1.2-0.2-2.3-0.6-3.4l-1.6,1.6c0.1,0.6,0.2,1.2,0.2,1.8
	c0,4.4-3.6,8-8,8s-8-3.6-8-8s3.6-8,8-8c0.6,0,1.2,0.1,1.8,0.2l1.6-1.6C14.3,2.2,13.2,2,12,2 M19,2l-4,4v1.5L12.4,10
	C12.3,10,12.1,10,12,10c-1.1,0-2,0.9-2,2s0.9,2,2,2s2-0.9,2-2c0-0.1,0-0.3-0.1-0.4L16.5,9H18l4-4h-3V2 M12,6c-3.3,0-6,2.7-6,6
	s2.7,6,6,6s6-2.7,6-6h-2c0,2.2-1.8,4-4,4s-4-1.8-4-4s1.8-4,4-4V6z"/>
</svg>
