<?xml version="1.0" encoding="utf-8"?>
<!-- Generator: Adobe Illustrator 23.0.2, SVG Export Plug-In . SVG Version: 6.00 Build 0)  -->
<svg version="1.1" id="Layer_1" xmlns="http://www.w3.org/2000/svg" xmlns:xlink="http://www.w3.org/1999/xlink" x="0px" y="0px"
	 viewBox="0 0 24 24" style="enable-background:new 0 0 24 24;" xml:space="preserve">
<style type="text/css">
	.st0{fill:#FFFFFF;}
</style>
<path class="st0" d="M9,13c0,1.7,1.3,3,3,3s3-1.3,3-3s-1.3-3-3-3S9,11.3,9,13 M20,19.6V8l-6-6H6C4.9,2,4,2.9,4,4v16c0,1.1,0.9,2,2,2
	h12c0.5,0,0.9-0.1,1.2-0.4l-4.4-4.4C14,17.7,13,18,12,18c-2.8,0-5-2.2-5-5s2.2-5,5-5s5,2.2,5,5c0,1-0.3,2-0.8,2.8L20,19.6z"/>
</svg>
