<?xml version="1.0" encoding="utf-8"?>
<!-- Generator: Adobe Illustrator 23.0.2, SVG Export Plug-In . SVG Version: 6.00 Build 0)  -->
<svg version="1.1" id="Layer_1" xmlns="http://www.w3.org/2000/svg" xmlns:xlink="http://www.w3.org/1999/xlink" x="0px" y="0px"
	 viewBox="0 0 24 24" style="enable-background:new 0 0 24 24;" xml:space="preserve">
<style type="text/css">
	.st0{fill:#FFFFFF;}
</style>
<path class="st0" d="M12,3c-1.3,0-2.4,0.8-2.8,2H3v2h1.9L2,14c-0.5,2,1,3,3.5,3s4.1-1,3.5-3L6.1,7h3.1c0.3,0.8,1,1.5,1.8,1.8V20H2v2
	h20v-2h-9V8.8c0.9-0.3,1.5-1,1.8-1.8H18l-3,7c-0.5,2,1,3,3.5,3s4.1-1,3.5-3l-3-7h2V5h-6.2C14.4,3.8,13.3,3,12,3 M12,5
	c0.6,0,1,0.4,1,1s-0.4,1-1,1s-1-0.4-1-1S11.4,5,12,5 M5.5,10.2L7,14H4L5.5,10.2 M18.5,10.2L20,14h-3L18.5,10.2z"/>
</svg>
